<svg xmlns="http://www.w3.org/2000/svg" xmlns:xlink="http://www.w3.org/1999/xlink" xmlns:lucid="lucid" width="4563.95" height="1184.07"><g transform="translate(4240 1773.7411907844798)" lucid:page-tab-id="0_0"><path d="M-3819.1-1476.4c65.78 0 119.1 53.33 119.1 119.1 0 65.78-53.32 119.1-119.1 119.1h-201.8c-65.78 0-119.1-53.32-119.1-119.1 0-65.77 53.32-119.1 119.1-119.1z" stroke="#c3f7c8" stroke-width="2" fill="#c3f7c8"/><use xlink:href="#a" transform="matrix(1,0,0,1,-4135,-1471.388172858226) translate(96.67166666666667 124.89583333333334)"/><path d="M-3819.1-1000c65.78 0 119.1 53.32 119.1 119.1 0 65.77-53.32 119.1-119.1 119.1h-201.8c-65.78 0-119.1-53.33-119.1-119.1 0-65.78 53.32-119.1 119.1-119.1z" stroke="#b5d6ff" stroke-width="2" fill="#fcfcca"/><use xlink:href="#b" transform="matrix(1,0,0,1,-4135,-995) translate(63.33833333333332 124.89583333333334)"/><path d="M-3525.82-1232.2a6 6 0 0 1 6-6h728a6 6 0 0 1 6 6v208a6 6 0 0 1-6 6h-728a6 6 0 0 1-6-6z" stroke="#5e5e5e" stroke-width="3" fill="#cfe4ff"/><use xlink:href="#c" transform="matrix(1,0,0,1,-3513.8236296506675,-1226.194086429113) translate(60.222222222222626 108.45833333333326)"/><path d="M-3696.28-880.55l148.98-218.36" stroke="#5e5e5e" stroke-width="10" fill="none"/><path d="M-3692.1-877.86l-4.58 6.72-2.6-1.78.17-2.85.1-5.13v-1.68z" stroke="#5e5e5e" stroke-width=".05" fill="#5e5e5e"/><path d="M-3536.44-1114.83l-4.2 14.4-7.67-5.23z" stroke="#5e5e5e" stroke-width="10" fill="#5e5e5e"/><path d="M-3696.16-1353.17l148.74 216.04" stroke="#5e5e5e" stroke-width="10" fill="none"/><path d="M-3692-1355.9l-7.18 4.96.07-1.22.1-5.13-.02-2.13-.05-1.45 2.47-1.7z" stroke="#5e5e5e" stroke-width=".05" fill="#5e5e5e"/><path d="M-3536.5-1121.26l-11.9-9.12 7.63-5.26z" stroke="#5e5e5e" stroke-width="10" fill="#5e5e5e"/><path d="M-420-1254a6 6 0 0 1 6-6h728a6 6 0 0 1 6 6v208a6 6 0 0 1-6 6h-728a6 6 0 0 1-6-6z" stroke="#5e5e5e" stroke-width="3" fill="#cfe4ff"/><use xlink:href="#d" transform="matrix(1,0,0,1,-408,-1248) translate(221.4259259259261 108.45833333333326)"/><path d="M-2779.32-1128.23l82.38-.6" stroke="#5e5e5e" stroke-width="10" fill="none"/><path d="M-2779.16-1123.26l-5.16.04v-9.95l5.1-.04z" stroke="#5e5e5e" stroke-width=".05" fill="#5e5e5e"/><path d="M-2677.68-1128.98l-14.23 4.74-.08-9.27z" stroke="#5e5e5e" stroke-width="10" fill="#5e5e5e"/><path d="M-531.5-1148.92l74.56-.73" stroke="#5e5e5e" stroke-width="10" fill="none"/><path d="M-531.32-1143.95l-5.18.05v-9.95l5.08-.05z" stroke="#5e5e5e" stroke-width=".05" fill="#5e5e5e"/><path d="M-437.68-1149.84l-14.22 4.77-.1-9.27z" stroke="#5e5e5e" stroke-width="10" fill="#5e5e5e"/><path d="M-4240-1604.33a6 6 0 0 1 6-6h728a6 6 0 0 1 6 6v160.14a6 6 0 0 1-6 6h-728a6 6 0 0 1-6-6z" fill="#fff" fill-opacity="0"/><use xlink:href="#e" transform="matrix(1,0,0,1,-4235,-1605.327419762446) translate(9.019753086420224 94.79444444444437)"/><use xlink:href="#f" transform="matrix(1,0,0,1,-4235,-1605.327419762446) translate(372.5061728395062 94.79444444444437)"/><path d="M-4240-755.8a6 6 0 0 1 6-6h728a6 6 0 0 1 6 6v160.13a6 6 0 0 1-6 6h-728a6 6 0 0 1-6-6z" fill="#fff" fill-opacity="0"/><use xlink:href="#g" transform="matrix(1,0,0,1,-4235,-756.805913570887) translate(61.37530864197572 94.79444444444437)"/><use xlink:href="#h" transform="matrix(1,0,0,1,-4235,-756.805913570887) translate(320.1506172839506 94.79444444444437)"/><path d="M-3480-954a6 6 0 0 1 6-6h715.2a6 6 0 0 1 6 6v241.2a6 6 0 0 1-6 6H-3474a6 6 0 0 1-6-6z" fill="#fff" fill-opacity="0"/><use xlink:href="#i" transform="matrix(1,0,0,1,-3475,-955) translate(177.25679012345702 61.669444444444366)"/><use xlink:href="#j" transform="matrix(1,0,0,1,-3475,-955) translate(55.37530864197572 142.73611111111092)"/><use xlink:href="#k" transform="matrix(1,0,0,1,-3475,-955) translate(422.61481481481474 142.73611111111092)"/><use xlink:href="#l" transform="matrix(1,0,0,1,-3475,-955) translate(175.3802469135805 223.80277777777746)"/><path d="M-1658.15-924.75a6 6 0 0 1 6-6h157.07a6 6 0 0 1 6 6v181.85a6 6 0 0 1-6 6h-157.08a6 6 0 0 1-6-6z" stroke="#1071e5" stroke-width="7" fill-opacity="0"/><use xlink:href="#m" transform="matrix(1,0,0,1,-1646.1549435255558,-918.7514783927221) translate(26.703703703703766 95.83333333333326)"/><path d="M-1489.08-924.23a6 6 0 0 1 6-6H-1326a6 6 0 0 1 6 6v181.86a6 6 0 0 1-6 6h-157.08a6 6 0 0 1-6-6z" stroke="#1071e5" stroke-width="7" fill-opacity="0"/><use xlink:href="#n" transform="matrix(1,0,0,1,-1477.0774717627785,-918.2257391963614) translate(26.703703703703766 95.83333333333326)"/><path d="M-1320-924.75a6 6 0 0 1 6-6h157.08a6 6 0 0 1 6 6v181.85a6 6 0 0 1-6 6H-1314a6 6 0 0 1-6-6z" stroke="#1071e5" stroke-width="7" fill-opacity="0"/><use xlink:href="#o" transform="matrix(1,0,0,1,-1308.0000000000002,-918.7514783927221) translate(26.703703703703766 95.83333333333326)"/><path d="M-1150.92-923.9a6 6 0 0 1 6-6h157.08a6 6 0 0 1 6 6v181.85a6 6 0 0 1-6 6h-157.08a6 6 0 0 1-6-6z" stroke="#1071e5" stroke-width="7" fill-opacity="0"/><use xlink:href="#p" transform="matrix(1,0,0,1,-1138.9225282372222,-917.9000000000002) translate(45.22222222222226 95.83333333333326)"/><path d="M-120-954a6 6 0 0 1 6-6H43.08a6 6 0 0 1 6 6v181.85a6 6 0 0 1-6 6H-114a6 6 0 0 1-6-6z" stroke="#1071e5" stroke-width="7" fill-opacity="0"/><use xlink:href="#q" transform="matrix(1,0,0,1,-108,-948) translate(8.185185185185276 95.83333333333326)"/><path d="M-2660-1232.2a6 6 0 0 1 6-6h361.3a6 6 0 0 1 6 6v206.2a6 6 0 0 1-6 6H-2654a6 6 0 0 1-6-6z" stroke="#5e5e5e" stroke-width="3" fill="#ffd9d9"/><use xlink:href="#r" transform="matrix(1,0,0,1,-2648,-1226.194086429113) translate(100.92592592592602 70.83333333333337)"/><use xlink:href="#s" transform="matrix(1,0,0,1,-2648,-1226.194086429113) translate(-9.999999999999773 150.83333333333326)"/><path d="M-2142.67-1128.2c0 18.83-17.46 34.1-39 34.1s-39-15.27-39-34.1c0-18.82 17.46-34.08 39-34.08s39 15.26 39 34.1z" stroke="#635dff" stroke-width="3" fill="#fff"/><use xlink:href="#t" transform="matrix(1,0,0,1,-2215.6700643553713,-1157.277419762447) translate(15.703703703703727 51.555555555555486)"/><path d="M-2301.67-1452.2a6 6 0 0 1 6-6h228a6 6 0 0 1 6 6v48a6 6 0 0 1-6 6h-228a6 6 0 0 1-6-6z" fill="none"/><use xlink:href="#u" transform="matrix(1,0,0,1,-2301.6700643553704,-1458.194086429113) translate(-24.647222222221984 53.51111111111102)"/><use xlink:href="#v" transform="matrix(1,0,0,1,-2301.6700643553704,-1458.194086429113) translate(-32.265123456789865 133.77777777777754)"/><path d="M-2280.2-1129.1h22.64" stroke="#5e5e5e" stroke-width="10" fill="none"/><path d="M-2280.07-1124.12h-5.13v-9.95h5.13z" stroke="#5e5e5e" stroke-width=".05" fill="#5e5e5e"/><path d="M-2238.3-1129.1l-14.26 4.64v-9.27z" stroke="#5e5e5e" stroke-width="10" fill="#5e5e5e"/><path d="M-2180.06-1295l-1.18 95.78M-2180.06-1294.87l.06-5.13" stroke="#5e5e5e" stroke-width="10" fill="none"/><path d="M-2181.47-1179.96l-4.46-14.32 9.27.12z" stroke="#5e5e5e" stroke-width="10" fill="#5e5e5e"/><path d="M-1983.1-1214.2a6 6 0 0 1 6-6h361.3a6 6 0 0 1 6 6v172a6 6 0 0 1-6 6h-361.3a6 6 0 0 1-6-6z" stroke="#5e5e5e" stroke-width="3" fill="#ffdda6"/><use xlink:href="#w" transform="matrix(1,0,0,1,-1971.10806085265,-1208.1940864291128) translate(14.351851851852047 58.33333333333326)"/><use xlink:href="#x" transform="matrix(1,0,0,1,-1971.10806085265,-1208.1940864291128) translate(43.611111111111285 138.33333333333314)"/><path d="M-1548-1195.5a6 6 0 0 1 6-6h208.7a6 6 0 0 1 6 6v143.5a6 6 0 0 1-6 6H-1542a6 6 0 0 1-6-6z" stroke="#5e5e5e" stroke-width="3" fill="#fff7a1"/><use xlink:href="#y" transform="matrix(1,0,0,1,-1536,-1189.5) translate(7.75925925925938 53.33333333333326)"/><use xlink:href="#z" transform="matrix(1,0,0,1,-1536,-1189.5) translate(144.79629629629625 53.33333333333326)"/><use xlink:href="#A" transform="matrix(1,0,0,1,-1536,-1189.5) translate(17.296296296296404 133.33333333333314)"/><path d="M-1248-1215.1a6 6 0 0 1 6-6h361.3a6 6 0 0 1 6 6v172a6 6 0 0 1-6 6H-1242a6 6 0 0 1-6-6z" stroke="#5e5e5e" stroke-width="3" fill="#d7faf5"/><use xlink:href="#B" transform="matrix(1,0,0,1,-1236,-1209.0970432145564) translate(99.16666666666677 58.33333333333326)"/><use xlink:href="#C" transform="matrix(1,0,0,1,-1236,-1209.0970432145564) translate(53.14814814814831 138.33333333333314)"/><path d="M-786.7-1209.5a6 6 0 0 1 6-6H-572a6 6 0 0 1 6 6v143.5a6 6 0 0 1-6 6h-208.7a6 6 0 0 1-6-6z" stroke="#5e5e5e" stroke-width="3" fill="#fff7a1"/><use xlink:href="#y" transform="matrix(1,0,0,1,-774.6961182887967,-1203.5) translate(7.75925925925938 53.33333333333326)"/><use xlink:href="#z" transform="matrix(1,0,0,1,-774.6961182887967,-1203.5) translate(144.79629629629625 53.33333333333326)"/><use xlink:href="#A" transform="matrix(1,0,0,1,-774.6961182887967,-1203.5) translate(17.296296296296404 133.33333333333314)"/><path d="M-1320.8-1123.75h35.85" stroke="#5e5e5e" stroke-width="10" fill="none"/><path d="M-1320.67-1118.78h-5.13v-9.94h5.13z" stroke="#5e5e5e" stroke-width=".05" fill="#5e5e5e"/><path d="M-1265.68-1123.75l-14.27 4.63v-9.27z" stroke="#5e5e5e" stroke-width="10" fill="#5e5e5e"/><path d="M-1297.9-1128.75L-1300-1260h623.65v7.55M-1297.9-1128.88l.07 5.13" stroke="#5e5e5e" stroke-width="10" fill="none"/><path d="M-676.35-1233.18l-4.63-14.27h9.27z" stroke="#5e5e5e" stroke-width="10" fill="#5e5e5e"/><path d="M-2136.17-1128.2h116.12" stroke="#5e5e5e" stroke-width="10" fill="none"/><path d="M-2136.04-1123.22h-5.57l.17-.92.26-4.02-.02-1.1-.37-3.9h5.53z" stroke="#5e5e5e" stroke-width=".05" fill="#5e5e5e"/><path d="M-2000.8-1128.2l-14.25 4.64v-9.27z" stroke="#5e5e5e" stroke-width="10" fill="#5e5e5e"/><path d="M-2080.18-1131l66.2-44.7M-2080.07-1131.07l-4.25 2.88" stroke="#5e5e5e" stroke-width="10" fill="none"/><path d="M-1998.02-1186.5l-9.22 11.83-5.2-7.68z" stroke="#5e5e5e" stroke-width="10" fill="#5e5e5e"/><path d="M-2075.45-1125.17l62.6 47.43M-2075.35-1125.1l-4.1-3.1" stroke="#5e5e5e" stroke-width="10" fill="none"/><path d="M-1997.5-1066.1l-14.17-4.92 5.6-7.4z" stroke="#5e5e5e" stroke-width="10" fill="#5e5e5e"/><path d="M-2094.1-1133.2V-1260h656.45v21.55M-2094.1-1133.32v5.13" stroke="#5e5e5e" stroke-width="10" fill="none"/><path d="M-1437.65-1219.18l-4.63-14.27h9.26z" stroke="#5e5e5e" stroke-width="10" fill="#5e5e5e"/><path d="M-1603.3-1128.2h18.35" stroke="#5e5e5e" stroke-width="10" fill="none"/><path d="M-1603.18-1123.22h-5.12v-9.95h5.12z" stroke="#5e5e5e" stroke-width=".05" fill="#5e5e5e"/><path d="M-1565.68-1128.2l-14.27 4.64v-9.27z" stroke="#5e5e5e" stroke-width="10" fill="#5e5e5e"/><path d="M-2127.3-1291.75a6 6 0 0 1 6-6H-546a6 6 0 0 1 6 6V-1006a6 6 0 0 1-6 6h-1575.3a6 6 0 0 1-6-6z" stroke="#000" stroke-width="7" fill-opacity="0"/><path d="M-1440-1414a6 6 0 0 1 6-6h228a6 6 0 0 1 6 6v48a6 6 0 0 1-6 6h-228a6 6 0 0 1-6-6z" fill="none"/><g><use xlink:href="#D" transform="matrix(1,0,0,1,-1440,-1420) translate(79.21635802469143 53.51111111111102)"/></g><g fill="none"><path d="M314-1773.74a6 6 0 0 1 6 6v285.35a6 6 0 0 1-6 6h-2452.7a6 6 0 0 1-6-6v-285.34a6 6 0 0 1 6-6z"/><path d="M-2144.7-1476.4c0-5.5 4.47-10 10-10h1212.35c5.52 0 10-4.47 10-10 0 5.53 4.47 10 10 10H310c5.52 0 10 4.5 10 10" stroke="#e81313" stroke-width="8"/></g><path d="M-1120-1661.5a6 6 0 0 1 6-6h228a6 6 0 0 1 6 6v48a6 6 0 0 1-6 6h-228a6 6 0 0 1-6-6z" fill="none"/><g><use xlink:href="#E" transform="matrix(1,0,0,1,-1120,-1667.5) translate(-115.41172839506135 53.51111111111102)"/></g><defs><path fill="#282c33" d="M240 0l2-218c-23 76-54 145-80 218h-23L58-218 59 0H30v-248h44l77 211c21-75 51-140 76-211h43V0h-30" id="F"/><path fill="#282c33" d="M100-194c63 0 86 42 84 106H49c0 40 14 67 53 68 26 1 43-12 49-29l28 8c-11 28-37 45-77 45C44 4 14-33 15-96c1-61 26-98 85-98zm52 81c6-60-76-77-97-28-3 7-6 17-6 28h103" id="G"/><path fill="#282c33" d="M117-194c89-4 53 116 60 194h-32v-121c0-31-8-49-39-48C34-167 62-67 57 0H25l-1-190h30c1 10-1 24 2 32 11-22 29-35 61-36" id="H"/><path fill="#282c33" d="M59-47c-2 24 18 29 38 22v24C64 9 27 4 27-40v-127H5v-23h24l9-43h21v43h35v23H59v120" id="I"/><path fill="#282c33" d="M24-231v-30h32v30H24zM24 0v-190h32V0H24" id="J"/><path fill="#282c33" d="M100-194c62-1 85 37 85 99 1 63-27 99-86 99S16-35 15-95c0-66 28-99 85-99zM99-20c44 1 53-31 53-75 0-43-8-75-51-75s-53 32-53 75 10 74 51 75" id="K"/><g id="a"><use transform="matrix(0.1851851851851852,0,0,0.1851851851851852,0,0)" xlink:href="#F"/><use transform="matrix(0.1851851851851852,0,0,0.1851851851851852,55.370370370370374,0)" xlink:href="#G"/><use transform="matrix(0.1851851851851852,0,0,0.1851851851851852,92.40740740740742,0)" xlink:href="#H"/><use transform="matrix(0.1851851851851852,0,0,0.1851851851851852,129.44444444444446,0)" xlink:href="#I"/><use transform="matrix(0.1851851851851852,0,0,0.1851851851851852,147.962962962963,0)" xlink:href="#J"/><use transform="matrix(0.1851851851851852,0,0,0.1851851851851852,162.5925925925926,0)" xlink:href="#K"/><use transform="matrix(0.1851851851851852,0,0,0.1851851851851852,199.62962962962965,0)" xlink:href="#H"/></g><path fill="#282c33" d="M212-179c-10-28-35-45-73-45-59 0-87 40-87 99 0 60 29 101 89 101 43 0 62-24 78-52l27 14C228-24 195 4 139 4 59 4 22-46 18-125c-6-104 99-153 187-111 19 9 31 26 39 46" id="L"/><path fill="#282c33" d="M141-36C126-15 110 5 73 4 37 3 15-17 15-53c-1-64 63-63 125-63 3-35-9-54-41-54-24 1-41 7-42 31l-33-3c5-37 33-52 76-52 45 0 72 20 72 64v82c-1 20 7 32 28 27v20c-31 9-61-2-59-35zM48-53c0 20 12 33 32 33 41-3 63-29 60-74-43 2-92-5-92 41" id="M"/><path fill="#282c33" d="M85-194c31 0 48 13 60 33l-1-100h32l1 261h-30c-2-10 0-23-3-31C134-8 116 4 85 4 32 4 16-35 15-94c0-66 23-100 70-100zm9 24c-40 0-46 34-46 75 0 40 6 74 45 74 42 0 51-32 51-76 0-42-9-74-50-73" id="N"/><g id="b"><use transform="matrix(0.1851851851851852,0,0,0.1851851851851852,0,0)" xlink:href="#L"/><use transform="matrix(0.1851851851851852,0,0,0.1851851851851852,47.96296296296297,0)" xlink:href="#M"/><use transform="matrix(0.1851851851851852,0,0,0.1851851851851852,85,0)" xlink:href="#H"/><use transform="matrix(0.1851851851851852,0,0,0.1851851851851852,122.03703703703705,0)" xlink:href="#N"/><use transform="matrix(0.1851851851851852,0,0,0.1851851851851852,159.07407407407408,0)" xlink:href="#J"/><use transform="matrix(0.1851851851851852,0,0,0.1851851851851852,173.7037037037037,0)" xlink:href="#N"/><use transform="matrix(0.1851851851851852,0,0,0.1851851851851852,210.7407407407407,0)" xlink:href="#M"/><use transform="matrix(0.1851851851851852,0,0,0.1851851851851852,247.77777777777777,0)" xlink:href="#I"/><use transform="matrix(0.1851851851851852,0,0,0.1851851851851852,266.2962962962963,0)" xlink:href="#G"/></g><path d="M26 75v-336h71v23H56V52h41v23H26" id="O"/><path d="M240 0l2-218c-23 76-54 145-80 218h-23L58-218 59 0H30v-248h44l77 211c21-75 51-140 76-211h43V0h-30" id="P"/><path d="M100-194c63 0 86 42 84 106H49c0 40 14 67 53 68 26 1 43-12 49-29l28 8c-11 28-37 45-77 45C44 4 14-33 15-96c1-61 26-98 85-98zm52 81c6-60-76-77-97-28-3 7-6 17-6 28h103" id="Q"/><path d="M117-194c89-4 53 116 60 194h-32v-121c0-31-8-49-39-48C34-167 62-67 57 0H25l-1-190h30c1 10-1 24 2 32 11-22 29-35 61-36" id="R"/><path d="M59-47c-2 24 18 29 38 22v24C64 9 27 4 27-40v-127H5v-23h24l9-43h21v43h35v23H59v120" id="S"/><path d="M24-231v-30h32v30H24zM24 0v-190h32V0H24" id="T"/><path d="M100-194c62-1 85 37 85 99 1 63-27 99-86 99S16-35 15-95c0-66 28-99 85-99zM99-20c44 1 53-31 53-75 0-43-8-75-51-75s-53 32-53 75 10 74 51 75" id="U"/><path d="M33-154v-36h34v36H33zM33 0v-36h34V0H33" id="V"/><path d="M212-179c-10-28-35-45-73-45-59 0-87 40-87 99 0 60 29 101 89 101 43 0 62-24 78-52l27 14C228-24 195 4 139 4 59 4 22-46 18-125c-6-104 99-153 187-111 19 9 31 26 39 46" id="W"/><path d="M141-36C126-15 110 5 73 4 37 3 15-17 15-53c-1-64 63-63 125-63 3-35-9-54-41-54-24 1-41 7-42 31l-33-3c5-37 33-52 76-52 45 0 72 20 72 64v82c-1 20 7 32 28 27v20c-31 9-61-2-59-35zM48-53c0 20 12 33 32 33 41-3 63-29 60-74-43 2-92-5-92 41" id="X"/><path d="M85-194c31 0 48 13 60 33l-1-100h32l1 261h-30c-2-10 0-23-3-31C134-8 116 4 85 4 32 4 16-35 15-94c0-66 23-100 70-100zm9 24c-40 0-46 34-46 75 0 40 6 74 45 74 42 0 51-32 51-76 0-42-9-74-50-73" id="Y"/><path d="M3 75V52h41v-290H3v-23h71V75H3" id="Z"/><g id="c"><use transform="matrix(0.18518518518518493,0,0,0.18518518518518493,0,0)" xlink:href="#O"/><use transform="matrix(0.18518518518518493,0,0,0.18518518518518493,18.518518518518494,0)" xlink:href="#P"/><use transform="matrix(0.18518518518518493,0,0,0.18518518518518493,73.88888888888879,0)" xlink:href="#Q"/><use transform="matrix(0.18518518518518493,0,0,0.18518518518518493,110.9259259259258,0)" xlink:href="#R"/><use transform="matrix(0.18518518518518493,0,0,0.18518518518518493,147.96296296296276,0)" xlink:href="#S"/><use transform="matrix(0.18518518518518493,0,0,0.18518518518518493,166.48148148148127,0)" xlink:href="#T"/><use transform="matrix(0.18518518518518493,0,0,0.18518518518518493,181.1111111111109,0)" xlink:href="#U"/><use transform="matrix(0.18518518518518493,0,0,0.18518518518518493,218.1481481481479,0)" xlink:href="#R"/><use transform="matrix(0.18518518518518493,0,0,0.18518518518518493,255.18518518518488,0)" xlink:href="#V"/><use transform="matrix(0.18518518518518493,0,0,0.18518518518518493,273.70370370370335,0)" xlink:href="#W"/><use transform="matrix(0.18518518518518493,0,0,0.18518518518518493,321.66666666666623,0)" xlink:href="#X"/><use transform="matrix(0.18518518518518493,0,0,0.18518518518518493,358.70370370370324,0)" xlink:href="#R"/><use transform="matrix(0.18518518518518493,0,0,0.18518518518518493,395.74074074074025,0)" xlink:href="#Y"/><use transform="matrix(0.18518518518518493,0,0,0.18518518518518493,432.77777777777726,0)" xlink:href="#T"/><use transform="matrix(0.18518518518518493,0,0,0.18518518518518493,447.4074074074069,0)" xlink:href="#Y"/><use transform="matrix(0.18518518518518493,0,0,0.18518518518518493,484.44444444444383,0)" xlink:href="#X"/><use transform="matrix(0.18518518518518493,0,0,0.18518518518518493,521.4814814814808,0)" xlink:href="#S"/><use transform="matrix(0.18518518518518493,0,0,0.18518518518518493,539.9999999999993,0)" xlink:href="#Q"/><use transform="matrix(0.18518518518518493,0,0,0.18518518518518493,577.0370370370363,0)" xlink:href="#Z"/></g><path d="M24 0v-261h32V0H24" id="aa"/><path d="M135-143c-3-34-86-38-87 0 15 53 115 12 119 90S17 21 10-45l28-5c4 36 97 45 98 0-10-56-113-15-118-90-4-57 82-63 122-42 12 7 21 19 24 35" id="ab"/><path d="M101-234c-31-9-42 10-38 44h38v23H63V0H32v-167H5v-23h27c-7-52 17-82 69-68v24" id="ac"/><path d="M114-163C36-179 61-72 57 0H25l-1-190h30c1 12-1 29 2 39 6-27 23-49 58-41v29" id="ad"/><g id="d"><use transform="matrix(0.18518518518518493,0,0,0.18518518518518493,0,0)" xlink:href="#W"/><use transform="matrix(0.18518518518518493,0,0,0.18518518518518493,47.9629629629629,0)" xlink:href="#aa"/><use transform="matrix(0.18518518518518493,0,0,0.18518518518518493,62.59259259259252,0)" xlink:href="#X"/><use transform="matrix(0.18518518518518493,0,0,0.18518518518518493,99.6296296296295,0)" xlink:href="#ab"/><use transform="matrix(0.18518518518518493,0,0,0.18518518518518493,132.9629629629628,0)" xlink:href="#ab"/><use transform="matrix(0.18518518518518493,0,0,0.18518518518518493,166.29629629629608,0)" xlink:href="#T"/><use transform="matrix(0.18518518518518493,0,0,0.18518518518518493,180.9259259259257,0)" xlink:href="#ac"/><use transform="matrix(0.18518518518518493,0,0,0.18518518518518493,199.4444444444442,0)" xlink:href="#T"/><use transform="matrix(0.18518518518518493,0,0,0.18518518518518493,214.07407407407382,0)" xlink:href="#Q"/><use transform="matrix(0.18518518518518493,0,0,0.18518518518518493,251.1111111111108,0)" xlink:href="#ad"/></g><path d="M141 0L90-78 38 0H4l68-98-65-92h35l48 74 47-74h35l-64 92 68 98h-35" id="ae"/><path d="M115-194c55 1 70 41 70 98S169 2 115 4C84 4 66-9 55-30l1 105H24l-1-265h31l2 30c10-21 28-34 59-34zm-8 174c40 0 45-34 45-75s-6-73-45-74c-42 0-51 32-51 76 0 43 10 73 51 73" id="af"/><path d="M96-169c-40 0-48 33-48 73s9 75 48 75c24 0 41-14 43-38l32 2c-6 37-31 61-74 61-59 0-76-41-82-99-10-93 101-131 147-64 4 7 5 14 7 22l-32 3c-4-21-16-35-41-35" id="ag"/><path d="M100-194c62-1 85 37 85 99 1 63-27 99-86 99S16-35 15-95c0-66 28-99 85-99zM99-20c44 1 53-31 53-75 0-43-8-75-51-75s-53 32-53 75 10 74 51 75zM76-211c8-23 27-35 38-54h36v5l-58 49H76" id="ah"/><g id="e"><use transform="matrix(0.18765432098765406,0,0,0.18765432098765406,0,0)" xlink:href="#Q"/><use transform="matrix(0.18765432098765406,0,0,0.18765432098765406,37.53086419753081,0)" xlink:href="#ae"/><use transform="matrix(0.18765432098765406,0,0,0.18765432098765406,71.30864197530855,0)" xlink:href="#af"/><use transform="matrix(0.18765432098765406,0,0,0.18765432098765406,108.83950617283935,0)" xlink:href="#aa"/><use transform="matrix(0.18765432098765406,0,0,0.18765432098765406,123.66419753086402,0)" xlink:href="#U"/><use transform="matrix(0.18765432098765406,0,0,0.18765432098765406,161.19506172839482,0)" xlink:href="#ad"/><use transform="matrix(0.18765432098765406,0,0,0.18765432098765406,183.52592592592566,0)" xlink:href="#X"/><use transform="matrix(0.18765432098765406,0,0,0.18765432098765406,221.05679012345647,0)" xlink:href="#ag"/><use transform="matrix(0.18765432098765406,0,0,0.18765432098765406,254.8345679012342,0)" xlink:href="#T"/><use transform="matrix(0.18765432098765406,0,0,0.18765432098765406,269.6592592592589,0)" xlink:href="#ah"/><use transform="matrix(0.18765432098765406,0,0,0.18765432098765406,307.1901234567897,0)" xlink:href="#R"/></g><path d="M84 4C-5 8 30-112 23-190h32v120c0 31 7 50 39 49 72-2 45-101 50-169h31l1 190h-30c-1-10 1-25-2-33-11 22-28 36-60 37" id="ai"/><path d="M177-190C167-65 218 103 67 71c-23-6-38-20-44-43l32-5c15 47 100 32 89-28v-30C133-14 115 1 83 1 29 1 15-40 15-95c0-56 16-97 71-98 29-1 48 16 59 35 1-10 0-23 2-32h30zM94-22c36 0 50-32 50-73 0-42-14-75-50-75-39 0-46 34-46 75s6 73 46 73" id="aj"/><g id="f"><use transform="matrix(0.18765432098765406,0,0,0.18765432098765406,0,0)" xlink:href="#R"/><use transform="matrix(0.18765432098765406,0,0,0.18765432098765406,37.53086419753081,0)" xlink:href="#Q"/><use transform="matrix(0.18765432098765406,0,0,0.18765432098765406,75.06172839506162,0)" xlink:href="#ai"/><use transform="matrix(0.18765432098765406,0,0,0.18765432098765406,112.59259259259244,0)" xlink:href="#ad"/><use transform="matrix(0.18765432098765406,0,0,0.18765432098765406,134.92345679012328,0)" xlink:href="#U"/><use transform="matrix(0.18765432098765406,0,0,0.18765432098765406,172.45432098765409,0)" xlink:href="#aa"/><use transform="matrix(0.18765432098765406,0,0,0.18765432098765406,187.27901234567875,0)" xlink:href="#ah"/><use transform="matrix(0.18765432098765406,0,0,0.18765432098765406,224.80987654320955,0)" xlink:href="#aj"/><use transform="matrix(0.18765432098765406,0,0,0.18765432098765406,262.3407407407404,0)" xlink:href="#T"/><use transform="matrix(0.18765432098765406,0,0,0.18765432098765406,277.16543209876505,0)" xlink:href="#ag"/><use transform="matrix(0.18765432098765406,0,0,0.18765432098765406,310.94320987654277,0)" xlink:href="#X"/></g><path d="M210-169c-67 3-38 105-44 169h-31v-121c0-29-5-50-35-48C34-165 62-65 56 0H25l-1-190h30c1 10-1 24 2 32 10-44 99-50 107 0 11-21 27-35 58-36 85-2 47 119 55 194h-31v-121c0-29-5-49-35-48" id="ak"/><g id="g"><use transform="matrix(0.18765432098765406,0,0,0.18765432098765406,0,0)" xlink:href="#Q"/><use transform="matrix(0.18765432098765406,0,0,0.18765432098765406,37.53086419753081,0)" xlink:href="#ae"/><use transform="matrix(0.18765432098765406,0,0,0.18765432098765406,71.30864197530855,0)" xlink:href="#X"/><use transform="matrix(0.18765432098765406,0,0,0.18765432098765406,108.83950617283935,0)" xlink:href="#ak"/><use transform="matrix(0.18765432098765406,0,0,0.18765432098765406,164.9481481481479,0)" xlink:href="#Q"/><use transform="matrix(0.18765432098765406,0,0,0.18765432098765406,202.4790123456787,0)" xlink:href="#R"/></g><g id="h"><use transform="matrix(0.18765432098765406,0,0,0.18765432098765406,0,0)" xlink:href="#R"/><use transform="matrix(0.18765432098765406,0,0,0.18765432098765406,37.53086419753081,0)" xlink:href="#Q"/><use transform="matrix(0.18765432098765406,0,0,0.18765432098765406,75.06172839506162,0)" xlink:href="#ai"/><use transform="matrix(0.18765432098765406,0,0,0.18765432098765406,112.59259259259244,0)" xlink:href="#ad"/><use transform="matrix(0.18765432098765406,0,0,0.18765432098765406,134.92345679012328,0)" xlink:href="#U"/><use transform="matrix(0.18765432098765406,0,0,0.18765432098765406,172.45432098765409,0)" xlink:href="#aa"/><use transform="matrix(0.18765432098765406,0,0,0.18765432098765406,187.27901234567875,0)" xlink:href="#ah"/><use transform="matrix(0.18765432098765406,0,0,0.18765432098765406,224.80987654320955,0)" xlink:href="#aj"/><use transform="matrix(0.18765432098765406,0,0,0.18765432098765406,262.3407407407404,0)" xlink:href="#T"/><use transform="matrix(0.18765432098765406,0,0,0.18765432098765406,277.16543209876505,0)" xlink:href="#ag"/><use transform="matrix(0.18765432098765406,0,0,0.18765432098765406,310.94320987654277,0)" xlink:href="#U"/></g><g id="i"><use transform="matrix(0.18765432098765406,0,0,0.18765432098765406,0,0)" xlink:href="#O"/><use transform="matrix(0.18765432098765406,0,0,0.18765432098765406,18.765432098765405,0)" xlink:href="#Q"/><use transform="matrix(0.18765432098765406,0,0,0.18765432098765406,56.29629629629622,0)" xlink:href="#ae"/><use transform="matrix(0.18765432098765406,0,0,0.18765432098765406,90.07407407407395,0)" xlink:href="#af"/><use transform="matrix(0.18765432098765406,0,0,0.18765432098765406,127.60493827160475,0)" xlink:href="#aa"/><use transform="matrix(0.18765432098765406,0,0,0.18765432098765406,142.42962962962943,0)" xlink:href="#U"/><use transform="matrix(0.18765432098765406,0,0,0.18765432098765406,179.96049382716024,0)" xlink:href="#ad"/><use transform="matrix(0.18765432098765406,0,0,0.18765432098765406,202.29135802469108,0)" xlink:href="#X"/><use transform="matrix(0.18765432098765406,0,0,0.18765432098765406,239.82222222222188,0)" xlink:href="#ag"/><use transform="matrix(0.18765432098765406,0,0,0.18765432098765406,273.5999999999996,0)" xlink:href="#T"/><use transform="matrix(0.18765432098765406,0,0,0.18765432098765406,288.4246913580243,0)" xlink:href="#ah"/><use transform="matrix(0.18765432098765406,0,0,0.18765432098765406,325.9555555555551,0)" xlink:href="#R"/></g><g id="j"><use transform="matrix(0.18765432098765406,0,0,0.18765432098765406,0,0)" xlink:href="#R"/><use transform="matrix(0.18765432098765406,0,0,0.18765432098765406,37.53086419753081,0)" xlink:href="#Q"/><use transform="matrix(0.18765432098765406,0,0,0.18765432098765406,75.06172839506162,0)" xlink:href="#ai"/><use transform="matrix(0.18765432098765406,0,0,0.18765432098765406,112.59259259259244,0)" xlink:href="#ad"/><use transform="matrix(0.18765432098765406,0,0,0.18765432098765406,134.92345679012328,0)" xlink:href="#U"/><use transform="matrix(0.18765432098765406,0,0,0.18765432098765406,172.45432098765409,0)" xlink:href="#aa"/><use transform="matrix(0.18765432098765406,0,0,0.18765432098765406,187.27901234567875,0)" xlink:href="#ah"/><use transform="matrix(0.18765432098765406,0,0,0.18765432098765406,224.80987654320955,0)" xlink:href="#aj"/><use transform="matrix(0.18765432098765406,0,0,0.18765432098765406,262.3407407407404,0)" xlink:href="#T"/><use transform="matrix(0.18765432098765406,0,0,0.18765432098765406,277.16543209876505,0)" xlink:href="#ag"/><use transform="matrix(0.18765432098765406,0,0,0.18765432098765406,310.94320987654277,0)" xlink:href="#X"/></g><g id="k"><use transform="matrix(0.18765432098765406,0,0,0.18765432098765406,0,0)" xlink:href="#Q"/><use transform="matrix(0.18765432098765406,0,0,0.18765432098765406,37.53086419753081,0)" xlink:href="#ae"/><use transform="matrix(0.18765432098765406,0,0,0.18765432098765406,71.30864197530855,0)" xlink:href="#X"/><use transform="matrix(0.18765432098765406,0,0,0.18765432098765406,108.83950617283935,0)" xlink:href="#ak"/><use transform="matrix(0.18765432098765406,0,0,0.18765432098765406,164.9481481481479,0)" xlink:href="#Q"/><use transform="matrix(0.18765432098765406,0,0,0.18765432098765406,202.4790123456787,0)" xlink:href="#R"/></g><g id="l"><use transform="matrix(0.18765432098765406,0,0,0.18765432098765406,0,0)" xlink:href="#R"/><use transform="matrix(0.18765432098765406,0,0,0.18765432098765406,37.53086419753081,0)" xlink:href="#Q"/><use transform="matrix(0.18765432098765406,0,0,0.18765432098765406,75.06172839506162,0)" xlink:href="#ai"/><use transform="matrix(0.18765432098765406,0,0,0.18765432098765406,112.59259259259244,0)" xlink:href="#ad"/><use transform="matrix(0.18765432098765406,0,0,0.18765432098765406,134.92345679012328,0)" xlink:href="#U"/><use transform="matrix(0.18765432098765406,0,0,0.18765432098765406,172.45432098765409,0)" xlink:href="#aa"/><use transform="matrix(0.18765432098765406,0,0,0.18765432098765406,187.27901234567875,0)" xlink:href="#ah"/><use transform="matrix(0.18765432098765406,0,0,0.18765432098765406,224.80987654320955,0)" xlink:href="#aj"/><use transform="matrix(0.18765432098765406,0,0,0.18765432098765406,262.3407407407404,0)" xlink:href="#T"/><use transform="matrix(0.18765432098765406,0,0,0.18765432098765406,277.16543209876505,0)" xlink:href="#ag"/><use transform="matrix(0.18765432098765406,0,0,0.18765432098765406,310.94320987654277,0)" xlink:href="#U"/><use transform="matrix(0.18765432098765406,0,0,0.18765432098765406,348.4740740740736,0)" xlink:href="#Z"/></g><path d="M101-251c68 0 85 55 85 127S166 4 100 4C33 4 14-52 14-124c0-73 17-127 87-127zm-1 229c47 0 54-49 54-102s-4-102-53-102c-51 0-55 48-55 102 0 53 5 102 54 102" id="al"/><path d="M33 0v-38h34V0H33" id="am"/><path d="M155-56V0h-30v-56H8v-25l114-167h33v167h35v25h-35zm-30-156c-27 46-58 90-88 131h88v-131" id="an"/><g id="m"><use transform="matrix(0.18518518518518493,0,0,0.18518518518518493,0,0)" xlink:href="#al"/><use transform="matrix(0.18518518518518493,0,0,0.18518518518518493,37.03703703703699,0)" xlink:href="#am"/><use transform="matrix(0.18518518518518493,0,0,0.18518518518518493,55.555555555555486,0)" xlink:href="#an"/></g><path d="M64 0c3-98 48-159 88-221H18v-27h164v26C143-157 98-101 97 0H64" id="ao"/><g id="n"><use transform="matrix(0.18518518518518493,0,0,0.18518518518518493,0,0)" xlink:href="#al"/><use transform="matrix(0.18518518518518493,0,0,0.18518518518518493,37.03703703703699,0)" xlink:href="#am"/><use transform="matrix(0.18518518518518493,0,0,0.18518518518518493,55.555555555555486,0)" xlink:href="#ao"/></g><path d="M27 0v-27h64v-190l-56 39v-29l58-41h29v221h61V0H27" id="ap"/><g id="o"><use transform="matrix(0.18518518518518493,0,0,0.18518518518518493,0,0)" xlink:href="#al"/><use transform="matrix(0.18518518518518493,0,0,0.18518518518518493,37.03703703703699,0)" xlink:href="#am"/><use transform="matrix(0.18518518518518493,0,0,0.18518518518518493,55.555555555555486,0)" xlink:href="#ap"/></g><g id="p"><use transform="matrix(0.18518518518518493,0,0,0.18518518518518493,0,0)" xlink:href="#am"/><use transform="matrix(0.18518518518518493,0,0,0.18518518518518493,18.518518518518494,0)" xlink:href="#am"/><use transform="matrix(0.18518518518518493,0,0,0.18518518518518493,37.03703703703699,0)" xlink:href="#am"/></g><g id="q"><use transform="matrix(0.18518518518518493,0,0,0.18518518518518493,0,0)" xlink:href="#al"/><use transform="matrix(0.18518518518518493,0,0,0.18518518518518493,37.03703703703699,0)" xlink:href="#am"/><use transform="matrix(0.18518518518518493,0,0,0.18518518518518493,55.555555555555486,0)" xlink:href="#am"/><use transform="matrix(0.18518518518518493,0,0,0.18518518518518493,74.07407407407398,0)" xlink:href="#am"/><use transform="matrix(0.18518518518518493,0,0,0.18518518518518493,92.59259259259247,0)" xlink:href="#ap"/></g><path d="M33 0v-248h34V0H33" id="aq"/><g id="r"><use transform="matrix(0.18518518518518493,0,0,0.18518518518518493,0,0)" xlink:href="#aq"/><use transform="matrix(0.18518518518518493,0,0,0.18518518518518493,18.518518518518494,0)" xlink:href="#R"/><use transform="matrix(0.18518518518518493,0,0,0.18518518518518493,55.555555555555486,0)" xlink:href="#af"/><use transform="matrix(0.18518518518518493,0,0,0.18518518518518493,92.59259259259247,0)" xlink:href="#ai"/><use transform="matrix(0.18518518518518493,0,0,0.18518518518518493,129.62962962962945,0)" xlink:href="#S"/></g><path d="M30 0v-248h187v28H63v79h144v27H63v87h162V0H30" id="ar"/><path d="M115-194c53 0 69 39 70 98 0 66-23 100-70 100C84 3 66-7 56-30L54 0H23l1-261h32v101c10-23 28-34 59-34zm-8 174c40 0 45-34 45-75 0-40-5-75-45-74-42 0-51 32-51 76 0 43 10 73 51 73" id="as"/><g id="s"><use transform="matrix(0.18518518518518493,0,0,0.18518518518518493,0,0)" xlink:href="#ar"/><use transform="matrix(0.18518518518518493,0,0,0.18518518518518493,44.44444444444438,0)" xlink:href="#ak"/><use transform="matrix(0.18518518518518493,0,0,0.18518518518518493,99.81481481481468,0)" xlink:href="#as"/><use transform="matrix(0.18518518518518493,0,0,0.18518518518518493,136.85185185185165,0)" xlink:href="#Q"/><use transform="matrix(0.18518518518518493,0,0,0.18518518518518493,173.88888888888863,0)" xlink:href="#Y"/><use transform="matrix(0.18518518518518493,0,0,0.18518518518518493,210.92592592592564,0)" xlink:href="#Y"/><use transform="matrix(0.18518518518518493,0,0,0.18518518518518493,247.96296296296256,0)" xlink:href="#T"/><use transform="matrix(0.18518518518518493,0,0,0.18518518518518493,262.5925925925922,0)" xlink:href="#R"/><use transform="matrix(0.18518518518518493,0,0,0.18518518518518493,299.6296296296292,0)" xlink:href="#aj"/><use transform="matrix(0.18518518518518493,0,0,0.18518518518518493,336.66666666666623,0)" xlink:href="#ab"/></g><path d="M118-107v75H92v-75H18v-26h74v-75h26v75h74v26h-74" id="at"/><use transform="matrix(0.1790123456790121,0,0,0.1790123456790121,0,0)" xlink:href="#at" id="t"/><path d="M30-248c87 1 191-15 191 75 0 78-77 80-158 76V0H30v-248zm33 125c57 0 124 11 124-50 0-59-68-47-124-48v98" id="au"/><g id="u"><use transform="matrix(0.18580246913580215,0,0,0.18580246913580215,0,0)" xlink:href="#au"/><use transform="matrix(0.18580246913580215,0,0,0.18580246913580215,44.59259259259252,0)" xlink:href="#U"/><use transform="matrix(0.18580246913580215,0,0,0.18580246913580215,81.75308641975295,0)" xlink:href="#ab"/><use transform="matrix(0.18580246913580215,0,0,0.18580246913580215,115.19753086419733,0)" xlink:href="#T"/><use transform="matrix(0.18580246913580215,0,0,0.18580246913580215,129.8759259259257,0)" xlink:href="#S"/><use transform="matrix(0.18580246913580215,0,0,0.18580246913580215,148.45617283950594,0)" xlink:href="#T"/><use transform="matrix(0.18580246913580215,0,0,0.18580246913580215,163.1345679012343,0)" xlink:href="#U"/><use transform="matrix(0.18580246913580215,0,0,0.18580246913580215,200.2950617283947,0)" xlink:href="#R"/><use transform="matrix(0.18580246913580215,0,0,0.18580246913580215,237.45555555555515,0)" xlink:href="#X"/><use transform="matrix(0.18580246913580215,0,0,0.18580246913580215,274.6160493827156,0)" xlink:href="#aa"/></g><g id="v"><use transform="matrix(0.18580246913580215,0,0,0.18580246913580215,0,0)" xlink:href="#Q"/><use transform="matrix(0.18580246913580215,0,0,0.18580246913580215,37.16049382716043,0)" xlink:href="#R"/><use transform="matrix(0.18580246913580215,0,0,0.18580246913580215,74.32098765432086,0)" xlink:href="#ag"/><use transform="matrix(0.18580246913580215,0,0,0.18580246913580215,107.76543209876525,0)" xlink:href="#U"/><use transform="matrix(0.18580246913580215,0,0,0.18580246913580215,144.92592592592567,0)" xlink:href="#Y"/><use transform="matrix(0.18580246913580215,0,0,0.18580246913580215,182.0864197530861,0)" xlink:href="#T"/><use transform="matrix(0.18580246913580215,0,0,0.18580246913580215,196.76481481481449,0)" xlink:href="#R"/><use transform="matrix(0.18580246913580215,0,0,0.18580246913580215,233.9253086419749,0)" xlink:href="#aj"/><use transform="matrix(0.18580246913580215,0,0,0.18580246913580215,271.08580246913533,0)" xlink:href="#ab"/></g><path d="M16-82v-28h88v28H16" id="av"/><path d="M197 0v-115H63V0H30v-248h33v105h134v-105h34V0h-34" id="aw"/><g id="w"><use transform="matrix(0.18518518518518493,0,0,0.18518518518518493,0,0)" xlink:href="#P"/><use transform="matrix(0.18518518518518493,0,0,0.18518518518518493,55.370370370370296,0)" xlink:href="#ai"/><use transform="matrix(0.18518518518518493,0,0,0.18518518518518493,92.40740740740728,0)" xlink:href="#aa"/><use transform="matrix(0.18518518518518493,0,0,0.18518518518518493,107.03703703703688,0)" xlink:href="#S"/><use transform="matrix(0.18518518518518493,0,0,0.18518518518518493,125.55555555555537,0)" xlink:href="#T"/><use transform="matrix(0.18518518518518493,0,0,0.18518518518518493,140.185185185185,0)" xlink:href="#av"/><use transform="matrix(0.18518518518518493,0,0,0.18518518518518493,162.222222222222,0)" xlink:href="#aw"/><use transform="matrix(0.18518518518518493,0,0,0.18518518518518493,210.18518518518488,0)" xlink:href="#Q"/><use transform="matrix(0.18518518518518493,0,0,0.18518518518518493,247.2222222222219,0)" xlink:href="#X"/><use transform="matrix(0.18518518518518493,0,0,0.18518518518518493,284.2592592592589,0)" xlink:href="#Y"/></g><path d="M205 0l-28-72H64L36 0H1l101-248h38L239 0h-34zm-38-99l-47-123c-12 45-31 82-46 123h93" id="ax"/><g id="x"><use transform="matrix(0.18518518518518493,0,0,0.18518518518518493,0,0)" xlink:href="#ax"/><use transform="matrix(0.18518518518518493,0,0,0.18518518518518493,44.44444444444438,0)" xlink:href="#S"/><use transform="matrix(0.18518518518518493,0,0,0.18518518518518493,62.96296296296288,0)" xlink:href="#S"/><use transform="matrix(0.18518518518518493,0,0,0.18518518518518493,81.48148148148137,0)" xlink:href="#Q"/><use transform="matrix(0.18518518518518493,0,0,0.18518518518518493,118.51851851851838,0)" xlink:href="#R"/><use transform="matrix(0.18518518518518493,0,0,0.18518518518518493,155.55555555555534,0)" xlink:href="#S"/><use transform="matrix(0.18518518518518493,0,0,0.18518518518518493,174.07407407407385,0)" xlink:href="#T"/><use transform="matrix(0.18518518518518493,0,0,0.18518518518518493,188.70370370370347,0)" xlink:href="#U"/><use transform="matrix(0.18518518518518493,0,0,0.18518518518518493,225.74074074074048,0)" xlink:href="#R"/></g><g id="y"><use transform="matrix(0.18518518518518493,0,0,0.18518518518518493,0,0)" xlink:href="#ax"/><use transform="matrix(0.18518518518518493,0,0,0.18518518518518493,44.44444444444438,0)" xlink:href="#Y"/><use transform="matrix(0.18518518518518493,0,0,0.18518518518518493,81.48148148148137,0)" xlink:href="#Y"/></g><path d="M234-2c-28 10-62 0-77-18C117 19 8 12 13-65c3-43 29-61 60-76-25-40-17-114 47-108 35 3 59 15 59 50 0 44-40 53-71 69 14 26 32 50 51 72 14-21 24-43 30-72l26 8c-9 33-21 57-38 82 13 13 33 22 57 15v23zM97-151c25-10 52-18 56-48-1-18-13-29-33-29-42 0-39 50-23 77zM42-66c-3 51 71 58 98 28-20-24-41-51-56-80-23 10-40 24-42 52" id="ay"/><use transform="matrix(0.18518518518518493,0,0,0.18518518518518493,0,0)" xlink:href="#ay" id="z"/><path d="M190 0L58-211 59 0H30v-248h39L202-35l-2-213h31V0h-41" id="az"/><g id="A"><use transform="matrix(0.18518518518518493,0,0,0.18518518518518493,0,0)" xlink:href="#az"/><use transform="matrix(0.18518518518518493,0,0,0.18518518518518493,47.9629629629629,0)" xlink:href="#U"/><use transform="matrix(0.18518518518518493,0,0,0.18518518518518493,84.99999999999989,0)" xlink:href="#ad"/><use transform="matrix(0.18518518518518493,0,0,0.18518518518518493,107.03703703703688,0)" xlink:href="#ak"/></g><path d="M63-220v92h138v28H63V0H30v-248h175v28H63" id="aA"/><g id="B"><use transform="matrix(0.18518518518518493,0,0,0.18518518518518493,0,0)" xlink:href="#aA"/><use transform="matrix(0.18518518518518493,0,0,0.18518518518518493,40.5555555555555,0)" xlink:href="#Q"/><use transform="matrix(0.18518518518518493,0,0,0.18518518518518493,77.5925925925925,0)" xlink:href="#Q"/><use transform="matrix(0.18518518518518493,0,0,0.18518518518518493,114.62962962962946,0)" xlink:href="#Y"/></g><path d="M206 0h-36l-40-164L89 0H53L-1-190h32L70-26l43-164h34l41 164 42-164h31" id="aB"/><g id="C"><use transform="matrix(0.18518518518518493,0,0,0.18518518518518493,0,0)" xlink:href="#aA"/><use transform="matrix(0.18518518518518493,0,0,0.18518518518518493,40.5555555555555,0)" xlink:href="#U"/><use transform="matrix(0.18518518518518493,0,0,0.18518518518518493,77.5925925925925,0)" xlink:href="#ad"/><use transform="matrix(0.18518518518518493,0,0,0.18518518518518493,99.6296296296295,0)" xlink:href="#aB"/><use transform="matrix(0.18518518518518493,0,0,0.18518518518518493,147.5925925925924,0)" xlink:href="#X"/><use transform="matrix(0.18518518518518493,0,0,0.18518518518518493,184.6296296296294,0)" xlink:href="#ad"/><use transform="matrix(0.18518518518518493,0,0,0.18518518518518493,206.66666666666643,0)" xlink:href="#Y"/></g><g id="D"><use transform="matrix(0.18580246913580215,0,0,0.18580246913580215,0,0)" xlink:href="#az"/><use transform="matrix(0.18580246913580215,0,0,0.18580246913580215,48.12283950617275,0)" xlink:href="#ae"/></g><path d="M67-125c0 53 21 87 73 88 37 1 54-22 65-47l45 17C233-25 199 4 140 4 58 4 20-42 15-125 8-235 124-281 211-232c18 10 29 29 36 50l-46 12c-8-25-30-41-62-41-52 0-71 34-72 86" id="aC"/><path d="M135-150c-39-12-60 13-60 57V0H25l-1-190h47c2 13-1 29 3 40 6-28 27-53 61-41v41" id="aD"/><path d="M110-194c64 0 96 36 96 99 0 64-35 99-97 99-61 0-95-36-95-99 0-62 34-99 96-99zm-1 164c35 0 45-28 45-65 0-40-10-65-43-65-34 0-45 26-45 65 0 36 10 65 43 65" id="aE"/><path d="M137-138c1-29-70-34-71-4 15 46 118 7 119 86 1 83-164 76-172 9l43-7c4 19 20 25 44 25 33 8 57-30 24-41C81-84 22-81 20-136c-2-80 154-74 161-7" id="aF"/><path d="M14-72v-43h91v43H14" id="aG"/><path d="M185-48c-13 30-37 53-82 52C43 2 14-33 14-96s30-98 90-98c62 0 83 45 84 108H66c0 31 8 55 39 56 18 0 30-7 34-22zm-45-69c5-46-57-63-70-21-2 6-4 13-4 21h74" id="aH"/><path d="M135-194c87-1 58 113 63 194h-50c-7-57 23-157-34-157-59 0-34 97-39 157H25l-1-190h47c2 12-1 28 3 38 12-26 28-41 61-42" id="aI"/><path d="M190-63c-7 42-38 67-86 67-59 0-84-38-90-98-12-110 154-137 174-36l-49 2c-2-19-15-32-35-32-30 0-35 28-38 64-6 74 65 87 74 30" id="aJ"/><path d="M88-194c31-1 46 15 58 34l-1-101h50l1 261h-48c-2-10 0-23-3-31C134-8 116 4 84 4 32 4 16-41 15-95c0-56 19-97 73-99zm17 164c33 0 40-30 41-66 1-37-9-64-41-64s-38 30-39 65c0 43 13 65 39 65" id="aK"/><g id="E"><use transform="matrix(0.18580246913580215,0,0,0.18580246913580215,0,0)" xlink:href="#aC"/><use transform="matrix(0.18580246913580215,0,0,0.18580246913580215,48.12283950617275,0)" xlink:href="#aD"/><use transform="matrix(0.18580246913580215,0,0,0.18580246913580215,74.13518518518505,0)" xlink:href="#aE"/><use transform="matrix(0.18580246913580215,0,0,0.18580246913580215,114.82592592592573,0)" xlink:href="#aF"/><use transform="matrix(0.18580246913580215,0,0,0.18580246913580215,151.98641975308615,0)" xlink:href="#aF"/><use transform="matrix(0.18580246913580215,0,0,0.18580246913580215,189.14691358024658,0)" xlink:href="#aG"/><use transform="matrix(0.18580246913580215,0,0,0.18580246913580215,211.257407407407,0)" xlink:href="#aH"/><use transform="matrix(0.18580246913580215,0,0,0.18580246913580215,248.41790123456744,0)" xlink:href="#aI"/><use transform="matrix(0.18580246913580215,0,0,0.18580246913580215,289.1086419753081,0)" xlink:href="#aJ"/><use transform="matrix(0.18580246913580215,0,0,0.18580246913580215,326.26913580246855,0)" xlink:href="#aE"/><use transform="matrix(0.18580246913580215,0,0,0.18580246913580215,366.95987654320925,0)" xlink:href="#aK"/><use transform="matrix(0.18580246913580215,0,0,0.18580246913580215,407.6506172839499,0)" xlink:href="#aH"/><use transform="matrix(0.18580246913580215,0,0,0.18580246913580215,444.8111111111104,0)" xlink:href="#aD"/></g></defs></g></svg>